<svg width="20" height="20" viewBox="0 0 20 20" fill="none" xmlns="http://www.w3.org/2000/svg">
<path d="M12.9997 3.99872C13.7947 4.0011 14.5564 4.31795 15.1185 4.88009C15.6807 5.44222 15.9975 6.20396 15.9999 6.99893V12.9987C15.9975 13.7937 15.6807 14.5554 15.1185 15.1176C14.5564 15.6797 13.7947 15.9966 12.9997 15.9989H6.99991C6.20494 15.9966 5.4432 15.6797 4.88106 15.1176C4.31893 14.5554 4.00207 13.7937 3.9997 12.9987V6.99893C4.00207 6.20396 4.31893 5.44222 4.88106 4.88009C5.4432 4.31795 6.20494 4.0011 6.99991 3.99872H12.9997ZM12.9997 2.79883H6.99991C4.6898 2.79883 2.7998 4.68883 2.7998 6.99893V12.9987C2.7998 15.3088 4.6898 17.1988 6.99991 17.1988H12.9997C15.3098 17.1988 17.1998 15.3088 17.1998 12.9987V6.99893C17.1998 4.68883 15.3098 2.79883 12.9997 2.79883Z" fill="#FF4E64"/>
<path d="M13.632 7.23574C13.4604 7.23574 13.2926 7.18484 13.1499 7.08947C13.0072 6.99411 12.8959 6.85857 12.8302 6.69999C12.7645 6.5414 12.7474 6.36691 12.7808 6.19856C12.8143 6.03021 12.897 5.87557 13.0184 5.75419C13.1397 5.63282 13.2944 5.55016 13.4627 5.51668C13.6311 5.48319 13.8056 5.50038 13.9642 5.56606C14.1227 5.63175 14.2583 5.74299 14.3536 5.88571C14.449 6.02843 14.4999 6.19622 14.4999 6.36787C14.5001 6.48191 14.4779 6.59487 14.4343 6.70028C14.3908 6.80568 14.3269 6.90145 14.2463 6.98209C14.1656 7.06273 14.0698 7.12665 13.9644 7.17017C13.859 7.2137 13.7461 7.23598 13.632 7.23574ZM9.87138 7.81411C10.3291 7.81411 10.7766 7.94985 11.1572 8.20416C11.5378 8.45847 11.8344 8.81993 12.0096 9.24284C12.1848 9.66574 12.2306 10.1311 12.1413 10.58C12.052 11.029 11.8316 11.4414 11.5079 11.7651C11.1842 12.0887 10.7718 12.3092 10.3229 12.3985C9.87394 12.4878 9.40859 12.4419 8.98569 12.2668C8.56278 12.0916 8.20132 11.795 7.94701 11.4143C7.6927 11.0337 7.55696 10.5863 7.55696 10.1285C7.55761 9.51491 7.80166 8.92661 8.23556 8.49271C8.66946 8.05882 9.25776 7.81476 9.87138 7.81411ZM9.87138 6.65705C9.18478 6.65705 8.51361 6.86065 7.94273 7.2421C7.37185 7.62355 6.9269 8.16572 6.66415 8.80005C6.40141 9.43438 6.33266 10.1324 6.46661 10.8058C6.60055 11.4792 6.93118 12.0977 7.41667 12.5832C7.90217 13.0687 8.52073 13.3993 9.19412 13.5333C9.86752 13.6672 10.5655 13.5985 11.1998 13.3357C11.8342 13.073 12.3763 12.6281 12.7578 12.0572C13.1392 11.4863 13.3428 10.8151 13.3428 10.1285C13.3428 9.20783 12.9771 8.32485 12.3261 7.67383C11.675 7.0228 10.7921 6.65705 9.87138 6.65705Z" fill="#FF4E64"/>
</svg>
