<svg width="37" height="36" viewBox="0 0 37 36" fill="none" xmlns="http://www.w3.org/2000/svg">
<path d="M33.4666 0H2.86663C1.36663 0 0.166626 1.2 0.166626 2.55V33.3C0.166626 34.65 1.36663 35.85 2.86663 35.85H33.4666C34.9666 35.85 36.1666 34.65 36.1666 33.3V2.55C36.1666 1.2 34.9666 0 33.4666 0ZM10.8166 30.6H5.56663V13.5H10.8166V30.6ZM8.26663 11.1C6.61663 11.1 5.11663 9.75 5.11663 7.95C5.11663 6.15 6.46663 4.8 8.26663 4.8C9.91663 4.8 11.4166 6.15 11.4166 7.95C11.4166 9.75 9.91663 11.1 8.26663 11.1ZM30.9166 30.45H25.6666V22.05C25.6666 20.1 25.6666 17.4 22.8166 17.4C19.9666 17.4 19.6666 19.65 19.6666 21.75V30.3H14.4166V13.5H19.3666V15.75H19.5166C20.2666 14.4 22.0666 12.9 24.6166 12.9C30.0166 12.9 31.0666 16.5 31.0666 21.15V30.45H30.9166Z" fill="white"/>
</svg>
