<svg width="20" height="20" viewBox="0 0 20 20" fill="none" xmlns="http://www.w3.org/2000/svg">
<g clip-path="url(#clip0_5_6405)">
<path d="M17.8852 5.80046L17.8854 5.80129C18.0556 6.43018 18.1496 7.43528 18.1988 8.3185C18.223 8.75275 18.2358 9.1453 18.2426 9.42931C18.246 9.5712 18.2478 9.68573 18.2488 9.76449L18.2498 9.8547L18.25 9.87767L18.25 9.88328L18.25 9.88442L18.25 9.89005L18.2499 9.9131L18.2493 10.0036C18.2486 10.0827 18.2472 10.1975 18.2443 10.3399C18.2386 10.6247 18.2272 11.0182 18.2044 11.4531C18.1579 12.3381 18.0665 13.3417 17.8969 13.9634L17.8965 13.9653C17.7406 14.5455 17.2798 15.0063 16.6995 15.1622L16.6977 15.1627C16.4108 15.2409 15.8598 15.3083 15.1519 15.3607C14.4583 15.4121 13.6553 15.4466 12.8899 15.4696C12.1254 15.4927 11.4025 15.5042 10.8705 15.51C10.6046 15.5128 10.3867 15.5143 10.2353 15.515L10.0606 15.5156L10.0152 15.5157L10.0037 15.5157L10.0009 15.5157H10.0002H10L10 16.0157L9.99997 15.5157H9.99982H9.99914L9.9963 15.5157L9.98481 15.5157L9.93936 15.5156L9.76468 15.515C9.61333 15.5143 9.39536 15.5128 9.12947 15.51C8.59749 15.5042 7.87464 15.4927 7.1101 15.4696C6.34474 15.4466 5.54169 15.4121 4.8481 15.3607C4.14016 15.3083 3.58921 15.2409 3.30229 15.1627L3.30046 15.1622C2.72018 15.0063 2.25944 14.5455 2.10355 13.9653L2.10332 13.9644C1.93344 13.3364 1.84206 12.3321 1.79564 11.4488C1.77283 11.0147 1.7614 10.6222 1.75569 10.3382C1.75284 10.1964 1.75141 10.0819 1.7507 10.0031L1.75009 9.91297L1.75001 9.89001L1.75 9.88441L1.75 9.88312L1.75 9.88289V9.88286V9.88286V9.88283L1.75 9.88259L1.75 9.8813L1.75001 9.87568L1.75008 9.85269L1.75068 9.76247C1.75137 9.6837 1.75275 9.56919 1.75552 9.42736C1.76106 9.14347 1.77215 8.7512 1.79428 8.31757C1.83928 7.43589 1.92788 6.43417 2.09256 5.81077C2.2487 5.23093 2.70925 4.77059 3.28923 4.61478L3.28923 4.61478L3.29106 4.61428C3.57839 4.53592 4.1297 4.46791 4.83761 4.41443C5.53128 4.36203 6.33439 4.32616 7.09977 4.30169C7.86435 4.27726 8.58723 4.26432 9.11923 4.25751C9.38512 4.2541 9.6031 4.25222 9.75445 4.2512L9.92914 4.25021L9.9746 4.25004L9.98609 4.25001L9.98893 4.25L9.98895 4.25L9.98963 4.25L9.99247 4.25L10.004 4.25001L10.0494 4.25009L10.2241 4.25072C10.3754 4.25144 10.5934 4.25288 10.8593 4.25576C11.3913 4.26153 12.1141 4.27307 12.8787 4.29611C13.644 4.31917 14.4471 4.35365 15.1407 4.40501C15.8486 4.45743 16.3996 4.5248 16.6865 4.60305L16.6883 4.60354C17.2686 4.75944 17.7293 5.22018 17.8852 5.80046Z" stroke="#FF0000"/>
<path d="M9.5 8.93426L11.0986 10L9.5 11.0657V8.93426Z" fill="#999CA0" stroke="#FF0000"/>
</g>
<defs>
<clipPath id="clip0_5_6405">
<rect width="17.5" height="17.5" fill="white" transform="translate(1.25 1.25)"/>
</clipPath>
</defs>
</svg>
